<?xml version="1.0" encoding="UTF-8" ?>
<!DOCTYPE svg PUBLIC "-//W3C//DTD SVG 1.1//EN" "http://www.w3.org/Graphics/SVG/1.1/DTD/svg11.dtd">
<svg width="263pt" height="300pt" viewBox="0 0 263 300" version="1.1" xmlns="http://www.w3.org/2000/svg">
<g id="#ffffffff">
</g>
<g id="#010101ff">
<path fill="#010101" opacity="1.00" d=" M 131.29 8.55 C 142.68 26.06 152.44 44.90 162.75 63.12 C 160.86 67.70 158.38 74.12 154.45 76.66 C 147.06 63.61 139.79 50.48 132.56 37.34 C 131.57 37.15 130.91 37.57 130.56 38.58 C 109.38 75.08 88.33 111.67 67.14 148.17 C 66.38 149.44 65.67 151.01 66.62 152.39 C 73.79 165.60 81.54 178.55 88.57 191.82 C 86.36 196.90 83.48 201.75 80.31 206.31 C 70.29 189.34 60.75 172.10 50.82 155.08 C 49.98 153.43 48.35 151.50 49.71 149.66 C 76.85 102.60 104.11 55.59 131.29 8.55 Z" />
<path fill="#010101" opacity="1.00" d=" M 72.44 34.52 C 72.89 34.25 73.79 33.70 74.25 33.43 C 80.80 43.36 86.26 53.97 92.39 64.16 C 89.27 70.51 85.50 76.51 81.89 82.58 C 73.93 69.33 65.68 56.09 58.88 42.23 C 63.50 39.83 67.95 37.16 72.44 34.52 Z" />
<path fill="#010101" opacity="1.00" d=" M 188.31 34.22 C 193.17 34.69 199.44 39.98 204.64 42.78 C 184.64 76.52 165.81 111.05 145.30 144.42 C 142.57 136.57 130.91 128.50 138.30 120.33 C 155.03 91.66 171.34 62.73 188.31 34.22 Z" />
<path fill="#010101" opacity="1.00" d=" M 106.52 91.35 L 107.14 90.33 C 127.10 123.65 146.42 157.45 165.63 191.21 C 162.76 197.18 159.39 204.25 155.03 208.91 C 135.03 176.00 116.39 142.02 96.67 108.86 C 99.55 102.81 103.19 97.16 106.52 91.35 Z" />
<path fill="#010101" opacity="1.00" d=" M 181.47 94.37 C 181.74 94.37 182.30 94.36 182.58 94.36 C 192.76 111.88 202.70 129.57 212.89 147.10 C 214.34 148.73 212.71 150.48 211.96 151.99 C 184.83 198.50 158.15 245.28 130.91 291.73 C 119.97 273.72 110.15 255.02 99.34 236.93 C 101.82 232.02 104.29 227.04 107.69 222.71 C 115.24 236.24 122.82 249.75 130.29 263.32 C 153.24 225.79 174.78 187.21 196.78 149.05 C 189.28 135.66 181.43 122.43 174.28 108.85 C 174.93 103.61 179.20 99.18 181.47 94.37 Z" />
<path fill="#010101" opacity="1.00" d=" M 117.19 157.06 C 121.83 161.74 125.17 168.77 127.86 174.90 C 110.70 205.92 92.31 236.34 74.85 267.23 C 69.13 265.22 64.34 261.33 58.91 258.71 C 77.35 224.35 97.75 190.91 117.19 157.06 Z" />
<path fill="#010101" opacity="1.00" d=" M 180.33 218.24 L 180.92 217.38 C 188.97 230.90 196.66 244.63 204.66 258.19 C 199.55 261.63 194.06 264.43 188.77 267.56 C 182.45 257.10 176.21 246.52 170.42 235.77 C 172.91 229.68 176.76 223.88 180.33 218.24 Z" />
</g>
</svg>
